<mxfile host="app.diagrams.net" agent="Mozilla/5.0 (Windows NT 10.0; Win64; x64) AppleWebKit/537.36 (KHTML, like Gecko) Chrome/134.0.0.0 Safari/537.36" version="26.1.3">
  <diagram name="Página-1" id="FJdVOiZzTXu_DuHvEqXR">
    <mxGraphModel dx="1393" dy="784" grid="1" gridSize="10" guides="1" tooltips="1" connect="1" arrows="1" fold="1" page="1" pageScale="1" pageWidth="2000" pageHeight="2000" math="0" shadow="0">
      <root>
        <mxCell id="0" />
        <mxCell id="1" parent="0" />
        <mxCell id="2p5mGvqVn3cUcONdrRJq-39" value="&lt;div&gt;&lt;br&gt;&lt;/div&gt;&lt;div&gt;&lt;br&gt;&lt;/div&gt;&lt;div&gt;&lt;br&gt;&lt;/div&gt;&lt;div&gt;&lt;br&gt;&lt;/div&gt;&lt;div&gt;&lt;br&gt;&lt;/div&gt;&lt;div&gt;&lt;br&gt;&lt;/div&gt;&lt;div&gt;&lt;br&gt;&lt;/div&gt;&lt;div&gt;&lt;br&gt;&lt;/div&gt;&lt;div&gt;&lt;br&gt;&lt;/div&gt;&lt;div&gt;&lt;br&gt;&lt;/div&gt;&lt;div&gt;&lt;br&gt;&lt;/div&gt;&lt;div&gt;&lt;br&gt;&lt;/div&gt;&lt;div&gt;&lt;br&gt;&lt;/div&gt;&lt;div&gt;&lt;br&gt;&lt;/div&gt;&lt;div&gt;&lt;br&gt;&lt;/div&gt;&lt;div&gt;&lt;br&gt;&lt;/div&gt;&lt;div&gt;&lt;font style=&quot;font-size: 20px;&quot;&gt;Sistema de gestão de pedidos e contratos&lt;/font&gt;&lt;/div&gt;" style="rounded=0;whiteSpace=wrap;html=1;" parent="1" vertex="1">
          <mxGeometry x="220" y="410" width="1360" height="260" as="geometry" />
        </mxCell>
        <mxCell id="2p5mGvqVn3cUcONdrRJq-1" value="Usuário" style="shape=umlActor;verticalLabelPosition=bottom;verticalAlign=top;html=1;outlineConnect=0;" parent="1" vertex="1">
          <mxGeometry x="870" y="150" width="30" height="60" as="geometry" />
        </mxCell>
        <mxCell id="2p5mGvqVn3cUcONdrRJq-6" value="Fazer cadastro" style="ellipse;whiteSpace=wrap;html=1;" parent="1" vertex="1">
          <mxGeometry x="730" y="430" width="120" height="80" as="geometry" />
        </mxCell>
        <mxCell id="2p5mGvqVn3cUcONdrRJq-7" value="Cliente" style="shape=umlActor;verticalLabelPosition=bottom;verticalAlign=top;html=1;outlineConnect=0;" parent="1" vertex="1">
          <mxGeometry x="500" y="330" width="30" height="60" as="geometry" />
        </mxCell>
        <mxCell id="2p5mGvqVn3cUcONdrRJq-9" value="" style="endArrow=none;html=1;rounded=0;startFill=0;" parent="1" source="2p5mGvqVn3cUcONdrRJq-1" target="2p5mGvqVn3cUcONdrRJq-6" edge="1">
          <mxGeometry width="50" height="50" relative="1" as="geometry">
            <mxPoint x="950" y="250" as="sourcePoint" />
            <mxPoint x="870" y="180" as="targetPoint" />
          </mxGeometry>
        </mxCell>
        <mxCell id="2p5mGvqVn3cUcONdrRJq-11" value="" style="endArrow=block;html=1;rounded=0;endFill=0;" parent="1" source="2p5mGvqVn3cUcONdrRJq-7" target="2p5mGvqVn3cUcONdrRJq-1" edge="1">
          <mxGeometry width="50" height="50" relative="1" as="geometry">
            <mxPoint x="520" y="332.67" as="sourcePoint" />
            <mxPoint x="674" y="217.32517241379324" as="targetPoint" />
          </mxGeometry>
        </mxCell>
        <mxCell id="2p5mGvqVn3cUcONdrRJq-12" value="Introduzir pedidos de aluguel" style="ellipse;whiteSpace=wrap;html=1;" parent="1" vertex="1">
          <mxGeometry x="240" y="552.67" width="120" height="80" as="geometry" />
        </mxCell>
        <mxCell id="2p5mGvqVn3cUcONdrRJq-13" value="Modificar pedidos de aluguel" style="ellipse;whiteSpace=wrap;html=1;" parent="1" vertex="1">
          <mxGeometry x="600" y="430" width="120" height="80" as="geometry" />
        </mxCell>
        <mxCell id="2p5mGvqVn3cUcONdrRJq-14" value="Consultar pedidos de aluguel" style="ellipse;whiteSpace=wrap;html=1;" parent="1" vertex="1">
          <mxGeometry x="370" y="552.67" width="120" height="80" as="geometry" />
        </mxCell>
        <mxCell id="2p5mGvqVn3cUcONdrRJq-15" value="Cancelar pedidos de aluguel" style="ellipse;whiteSpace=wrap;html=1;" parent="1" vertex="1">
          <mxGeometry x="500" y="552.67" width="120" height="80" as="geometry" />
        </mxCell>
        <mxCell id="2p5mGvqVn3cUcONdrRJq-16" value="" style="endArrow=none;html=1;rounded=0;startFill=0;" parent="1" source="2p5mGvqVn3cUcONdrRJq-7" target="2p5mGvqVn3cUcONdrRJq-12" edge="1">
          <mxGeometry width="50" height="50" relative="1" as="geometry">
            <mxPoint x="615" y="282.67" as="sourcePoint" />
            <mxPoint x="750" y="282.67" as="targetPoint" />
          </mxGeometry>
        </mxCell>
        <mxCell id="2p5mGvqVn3cUcONdrRJq-17" value="" style="endArrow=none;html=1;rounded=0;startFill=0;" parent="1" source="2p5mGvqVn3cUcONdrRJq-1" target="2p5mGvqVn3cUcONdrRJq-13" edge="1">
          <mxGeometry width="50" height="50" relative="1" as="geometry">
            <mxPoint x="625" y="292.67" as="sourcePoint" />
            <mxPoint x="760" y="292.67" as="targetPoint" />
          </mxGeometry>
        </mxCell>
        <mxCell id="2p5mGvqVn3cUcONdrRJq-18" value="" style="endArrow=none;html=1;rounded=0;startFill=0;" parent="1" source="2p5mGvqVn3cUcONdrRJq-7" target="2p5mGvqVn3cUcONdrRJq-14" edge="1">
          <mxGeometry width="50" height="50" relative="1" as="geometry">
            <mxPoint x="635" y="302.67" as="sourcePoint" />
            <mxPoint x="770" y="302.67" as="targetPoint" />
          </mxGeometry>
        </mxCell>
        <mxCell id="2p5mGvqVn3cUcONdrRJq-19" value="" style="endArrow=none;html=1;rounded=0;startFill=0;" parent="1" source="2p5mGvqVn3cUcONdrRJq-7" target="2p5mGvqVn3cUcONdrRJq-15" edge="1">
          <mxGeometry width="50" height="50" relative="1" as="geometry">
            <mxPoint x="645" y="312.67" as="sourcePoint" />
            <mxPoint x="780" y="312.67" as="targetPoint" />
          </mxGeometry>
        </mxCell>
        <mxCell id="2p5mGvqVn3cUcONdrRJq-20" value="Agente" style="shape=umlActor;verticalLabelPosition=bottom;verticalAlign=top;html=1;outlineConnect=0;" parent="1" vertex="1">
          <mxGeometry x="1270" y="330" width="30" height="60" as="geometry" />
        </mxCell>
        <mxCell id="2p5mGvqVn3cUcONdrRJq-21" value="" style="endArrow=block;html=1;rounded=0;endFill=0;" parent="1" source="2p5mGvqVn3cUcONdrRJq-20" target="2p5mGvqVn3cUcONdrRJq-1" edge="1">
          <mxGeometry width="50" height="50" relative="1" as="geometry">
            <mxPoint x="800" y="353" as="sourcePoint" />
            <mxPoint x="860" y="287" as="targetPoint" />
          </mxGeometry>
        </mxCell>
        <mxCell id="2p5mGvqVn3cUcONdrRJq-26" value="Avaliar pedidos de aluguel" style="ellipse;whiteSpace=wrap;html=1;" parent="1" vertex="1">
          <mxGeometry x="1120" y="552.67" width="120" height="80" as="geometry" />
        </mxCell>
        <mxCell id="2p5mGvqVn3cUcONdrRJq-27" value="" style="endArrow=none;html=1;rounded=0;startFill=0;" parent="1" source="2p5mGvqVn3cUcONdrRJq-20" target="2p5mGvqVn3cUcONdrRJq-26" edge="1">
          <mxGeometry width="50" height="50" relative="1" as="geometry">
            <mxPoint x="1230" y="445" as="sourcePoint" />
            <mxPoint x="1490" y="370" as="targetPoint" />
          </mxGeometry>
        </mxCell>
        <mxCell id="2p5mGvqVn3cUcONdrRJq-29" value="Avaliar pedido financeiramente" style="ellipse;whiteSpace=wrap;html=1;" parent="1" vertex="1">
          <mxGeometry x="1250" y="552.67" width="120" height="80" as="geometry" />
        </mxCell>
        <mxCell id="2p5mGvqVn3cUcONdrRJq-30" value="" style="endArrow=none;html=1;rounded=0;startFill=0;" parent="1" source="2p5mGvqVn3cUcONdrRJq-20" target="2p5mGvqVn3cUcONdrRJq-29" edge="1">
          <mxGeometry width="50" height="50" relative="1" as="geometry">
            <mxPoint x="1270" y="360" as="sourcePoint" />
            <mxPoint x="1580" y="370" as="targetPoint" />
          </mxGeometry>
        </mxCell>
        <mxCell id="2p5mGvqVn3cUcONdrRJq-31" value="Avaliar execução do contrato" style="ellipse;whiteSpace=wrap;html=1;" parent="1" vertex="1">
          <mxGeometry x="990" y="450" width="120" height="80" as="geometry" />
        </mxCell>
        <mxCell id="2p5mGvqVn3cUcONdrRJq-32" value="" style="endArrow=none;html=1;rounded=0;startFill=0;" parent="1" source="2p5mGvqVn3cUcONdrRJq-20" target="2p5mGvqVn3cUcONdrRJq-31" edge="1">
          <mxGeometry width="50" height="50" relative="1" as="geometry">
            <mxPoint x="870" y="215" as="sourcePoint" />
            <mxPoint x="1180" y="225" as="targetPoint" />
          </mxGeometry>
        </mxCell>
        <mxCell id="2p5mGvqVn3cUcONdrRJq-35" value="Banco" style="shape=umlActor;verticalLabelPosition=bottom;verticalAlign=top;html=1;outlineConnect=0;" parent="1" vertex="1">
          <mxGeometry x="1490" y="220" width="30" height="60" as="geometry" />
        </mxCell>
        <mxCell id="2p5mGvqVn3cUcONdrRJq-36" value="" style="endArrow=block;html=1;rounded=0;endFill=0;" parent="1" source="2p5mGvqVn3cUcONdrRJq-35" target="2p5mGvqVn3cUcONdrRJq-20" edge="1">
          <mxGeometry width="50" height="50" relative="1" as="geometry">
            <mxPoint x="1210" y="362" as="sourcePoint" />
            <mxPoint x="910" y="198" as="targetPoint" />
          </mxGeometry>
        </mxCell>
        <mxCell id="2p5mGvqVn3cUcONdrRJq-37" value="Conceder contrato de crédito" style="ellipse;whiteSpace=wrap;html=1;" parent="1" vertex="1">
          <mxGeometry x="1445" y="552.6699999999998" width="120" height="80" as="geometry" />
        </mxCell>
        <mxCell id="2p5mGvqVn3cUcONdrRJq-38" value="" style="endArrow=none;html=1;rounded=0;startFill=0;" parent="1" source="2p5mGvqVn3cUcONdrRJq-35" target="2p5mGvqVn3cUcONdrRJq-37" edge="1">
          <mxGeometry width="50" height="50" relative="1" as="geometry">
            <mxPoint x="1505" y="410" as="sourcePoint" />
            <mxPoint x="1840" y="384.67" as="targetPoint" />
          </mxGeometry>
        </mxCell>
        <mxCell id="2p5mGvqVn3cUcONdrRJq-40" value="Empresa" style="shape=umlActor;verticalLabelPosition=bottom;verticalAlign=top;html=1;outlineConnect=0;" parent="1" vertex="1">
          <mxGeometry x="1380" y="330" width="30" height="60" as="geometry" />
        </mxCell>
        <mxCell id="2p5mGvqVn3cUcONdrRJq-41" value="" style="endArrow=block;html=1;rounded=0;endFill=0;" parent="1" source="2p5mGvqVn3cUcONdrRJq-40" target="2p5mGvqVn3cUcONdrRJq-20" edge="1">
          <mxGeometry width="50" height="50" relative="1" as="geometry">
            <mxPoint x="1500" y="370" as="sourcePoint" />
            <mxPoint x="1350" y="370" as="targetPoint" />
          </mxGeometry>
        </mxCell>
        <mxCell id="2p5mGvqVn3cUcONdrRJq-43" value="Registrar proprietário do automóvel" style="ellipse;whiteSpace=wrap;html=1;" parent="1" vertex="1">
          <mxGeometry x="990" y="550" width="120" height="80" as="geometry" />
        </mxCell>
        <mxCell id="2p5mGvqVn3cUcONdrRJq-44" value="" style="endArrow=none;html=1;rounded=0;startFill=0;exitX=0.5;exitY=0.5;exitDx=0;exitDy=0;exitPerimeter=0;" parent="1" source="2p5mGvqVn3cUcONdrRJq-20" target="2p5mGvqVn3cUcONdrRJq-43" edge="1">
          <mxGeometry width="50" height="50" relative="1" as="geometry">
            <mxPoint x="1060" y="350" as="sourcePoint" />
            <mxPoint x="1330" y="362.67" as="targetPoint" />
          </mxGeometry>
        </mxCell>
        <mxCell id="QBoY6NkOgZjnfyuzolpJ-1" value="" style="endArrow=none;html=1;rounded=0;" parent="1" source="QBoY6NkOgZjnfyuzolpJ-2" target="2p5mGvqVn3cUcONdrRJq-40" edge="1">
          <mxGeometry width="50" height="50" relative="1" as="geometry">
            <mxPoint x="1220" y="520" as="sourcePoint" />
            <mxPoint x="1270" y="470" as="targetPoint" />
          </mxGeometry>
        </mxCell>
        <mxCell id="QBoY6NkOgZjnfyuzolpJ-2" value="Cadastrar automóvel" style="ellipse;whiteSpace=wrap;html=1;" parent="1" vertex="1">
          <mxGeometry x="1335" y="472.67" width="120" height="80" as="geometry" />
        </mxCell>
        <mxCell id="6TI9XNBIGeatjFdsPyR1-3" style="rounded=0;orthogonalLoop=1;jettySize=auto;html=1;endArrow=none;startFill=0;" parent="1" source="6TI9XNBIGeatjFdsPyR1-1" target="2p5mGvqVn3cUcONdrRJq-1" edge="1">
          <mxGeometry relative="1" as="geometry" />
        </mxCell>
        <mxCell id="6TI9XNBIGeatjFdsPyR1-1" value="Fazer login" style="ellipse;whiteSpace=wrap;html=1;" parent="1" vertex="1">
          <mxGeometry x="860" y="430" width="120" height="80" as="geometry" />
        </mxCell>
      </root>
    </mxGraphModel>
  </diagram>
</mxfile>
